<svg id="Camada_1" data-name="Camada 1" xmlns="http://www.w3.org/2000/svg" xmlns:xlink="http://www.w3.org/1999/xlink" viewBox="0 0 103.07 83.86"><defs><style>.cls-1{fill:none;}.cls-2{font-size:6.31px;font-family:TitilliumWeb-Light, Titillium Web;font-weight:300;}.cls-2,.cls-8{fill:#0090ff;}.cls-3{letter-spacing:0em;}.cls-4{letter-spacing:0em;}.cls-5{letter-spacing:0em;}.cls-6{letter-spacing:-0.01em;}.cls-7{clip-path:url(#clip-path);}.cls-9{clip-path:url(#clip-path-2);}.cls-10{clip-path:url(#clip-path-3);}</style><clipPath id="clip-path" transform="translate(-75.59 -43.33)"><rect class="cls-1" width="252.28" height="167.24"/></clipPath><clipPath id="clip-path-2" transform="translate(-75.59 -43.33)"><rect class="cls-1" x="85.06" y="41.98" width="84.95" height="29.32"/></clipPath><clipPath id="clip-path-3" transform="translate(-75.59 -43.33)"><rect class="cls-1" x="84.08" y="100.61" width="84.95" height="29.32"/></clipPath></defs><title>Logotipo  -Bytefrost</title><text class="cls-2" transform="translate(24.97 54.85)"></text><g class="cls-7"><path class="cls-8" d="M85.91,83a4,4,0,0,0,1.63-1.54,5.21,5.21,0,0,0,.52-2.55,4.38,4.38,0,0,0-1.38-3.6,6.56,6.56,0,0,0-4.18-1.13H75.59v18.2h7.13c3.86,0,5.79-1.71,5.79-5.15A4.08,4.08,0,0,0,85.91,83m-7.37-6.27h3.8c1.81,0,2.72.84,2.72,2.53s-.87,2.68-2.61,2.68H78.54Zm6.21,12.49a3.35,3.35,0,0,1-2.19.61h-4V84.39h4a3.62,3.62,0,0,1,2.13.6,2.36,2.36,0,0,1,.85,2.08,2.58,2.58,0,0,1-.73,2.1" transform="translate(-75.59 -43.33)"/><polygon class="cls-8" points="21.07 46.54 20.36 46.54 17.54 35.72 14.7 35.72 18.18 49.01 20.46 49.01 18.87 54.72 21.71 54.72 26.76 35.72 23.89 35.72 21.07 46.54"/><path class="cls-8" d="M109.53,90.05c-.66,0-1.06-.18-1.22-.53a6.23,6.23,0,0,1-.24-2.16V81.52h3.67V79.05h-3.67V75.19H105.2v3.86h-1.7v2.47h1.7v6.16c0,1.92.28,3.22.84,3.91a3.8,3.8,0,0,0,3.09,1,15.54,15.54,0,0,0,2.71-.35L111.71,90Z" transform="translate(-75.59 -43.33)"/><path class="cls-8" d="M119.23,78.76q-5.78,0-5.77,7.06,0,3.57,1.29,5.19A5.1,5.1,0,0,0,119,92.63a28.11,28.11,0,0,0,5.37-.61l0-2.16-.75.08c-1.33.11-2.62.16-3.88.16a3.37,3.37,0,0,1-2.58-.77,3.6,3.6,0,0,1-.71-2.42h8.23l.19-2.07c0-4.06-1.86-6.08-5.58-6.08m-2.87,5.92a4.41,4.41,0,0,1,.7-2.71,2.67,2.67,0,0,1,2.17-.82,2.55,2.55,0,0,1,2.11.78,4.5,4.5,0,0,1,.63,2.75Z" transform="translate(-75.59 -43.33)"/><path class="cls-8" d="M129.14,73.88c-.51.66-.77,1.93-.77,3.81v1.36h-1.73v1.41h1.73V92.33H130V80.46h4V79.05h-4V77.72a5.49,5.49,0,0,1,.45-2.71,1.88,1.88,0,0,1,1.7-.69c.51,0,1.29,0,2.34.05V73l-2.58-.13a3.27,3.27,0,0,0-2.74,1" transform="translate(-75.59 -43.33)"/><path class="cls-8" d="M143,78.78a11.49,11.49,0,0,0-2.62.85A15,15,0,0,0,138,81V79.05h-1.57V92.34H138v-10l.69-.4a19.22,19.22,0,0,1,1.94-.86,14.65,14.65,0,0,1,2.39-.73Z" transform="translate(-75.59 -43.33)"/><path class="cls-8" d="M147,81.33a4.74,4.74,0,0,1,6.19,0,7.17,7.17,0,0,1,.83,3.91h1.62q-.06-3.42-1.25-4.91c-.84-1-2.28-1.57-4.31-1.57s-3.46.52-4.3,1.57-1.21,2.63-1.26,4.91h1.65a7.29,7.29,0,0,1,.83-3.93" transform="translate(-75.59 -43.33)"/><path class="cls-8" d="M153.32,90c-.49.81-1.56,1.22-3.2,1.22s-2.7-.4-3.19-1.21a7.33,7.33,0,0,1-.7-3.25h-1.65A8.1,8.1,0,0,0,145.72,91q1.17,1.59,4.42,1.59c2.16,0,3.62-.53,4.39-1.59a8.11,8.11,0,0,0,1.13-4.28H154a7.21,7.21,0,0,1-.72,3.24" transform="translate(-75.59 -43.33)"/><path class="cls-8" d="M167.24,85.93a8.75,8.75,0,0,0-3.43-1.13,10.19,10.19,0,0,1-3.12-.84,1.56,1.56,0,0,1-.7-1.46c0-1.5,1-2.26,3.14-2.26a33.28,33.28,0,0,1,4.6.43l.05-1.41-.72-.11a28.63,28.63,0,0,0-4-.34,6,6,0,0,0-3.35.88,3.08,3.08,0,0,0-1.36,2.79,3,3,0,0,0,1,2.6,8.3,8.3,0,0,0,3.39,1.06,10.39,10.39,0,0,1,3.13.81,1.9,1.9,0,0,1,.73,1.77,2,2,0,0,1-.89,1.89,4.67,4.67,0,0,1-2.48.56,31.65,31.65,0,0,1-4.57-.46l-.11,1.41.77.11a24.46,24.46,0,0,0,3.77.37,6.48,6.48,0,0,0,3.83-.94,3.42,3.42,0,0,0,1.3-3,3.22,3.22,0,0,0-1-2.75" transform="translate(-75.59 -43.33)"/><path class="cls-8" d="M178.3,91l-2.44.18c-.92,0-1.51-.26-1.75-.79a9.58,9.58,0,0,1-.38-3.38V80.46h4.44V79.05h-4.44V74.88h-1.59v4.17h-2v1.41h2v7.36c0,1.87.26,3.15.78,3.81a3.42,3.42,0,0,0,2.81,1,19.05,19.05,0,0,0,2.68-.27Z" transform="translate(-75.59 -43.33)"/></g><g class="cls-9"><path class="cls-8" d="M166.42,85.26h-2a37.91,37.91,0,1,1-11.11-26.83,37.79,37.79,0,0,1,11.11,26.83h4a41.93,41.93,0,1,0-41.93,41.93,41.93,41.93,0,0,0,41.93-41.93Z" transform="translate(-75.59 -43.33)"/></g><g class="cls-10"><path class="cls-8" d="M166.42,85.26h-2a37.91,37.91,0,1,1-11.11-26.83,37.79,37.79,0,0,1,11.11,26.83h4a41.93,41.93,0,1,0-41.93,41.93,41.93,41.93,0,0,0,41.93-41.93Z" transform="translate(-75.59 -43.33)"/></g></svg>